<svg width="20" height="21" viewBox="0 0 20 21" fill="none" xmlns="http://www.w3.org/2000/svg">
<path d="M8.6 12.4797L6.45 10.3297C6.26667 10.1464 6.03333 10.0547 5.75 10.0547C5.46667 10.0547 5.23333 10.1464 5.05 10.3297C4.86667 10.513 4.775 10.7464 4.775 11.0297C4.775 11.313 4.86667 11.5464 5.05 11.7297L7.9 14.5797C8.1 14.7797 8.33333 14.8797 8.6 14.8797C8.86667 14.8797 9.1 14.7797 9.3 14.5797L14.95 8.92969C15.1333 8.74635 15.225 8.51302 15.225 8.22969C15.225 7.94635 15.1333 7.71302 14.95 7.52969C14.7667 7.34635 14.5333 7.25469 14.25 7.25469C13.9667 7.25469 13.7333 7.34635 13.55 7.52969L8.6 12.4797ZM10 20.6797C8.61667 20.6797 7.31667 20.417 6.1 19.8917C4.88333 19.3664 3.825 18.654 2.925 17.7547C2.025 16.8547 1.31267 15.7964 0.788 14.5797C0.263333 13.363 0.000666667 12.063 0 10.6797C0 9.29635 0.262667 7.99635 0.788 6.77969C1.31333 5.56302 2.02567 4.50469 2.925 3.60469C3.825 2.70469 4.88333 1.99235 6.1 1.46769C7.31667 0.943021 8.61667 0.680354 10 0.679688C11.3833 0.679688 12.6833 0.942354 13.9 1.46769C15.1167 1.99302 16.175 2.70535 17.075 3.60469C17.975 4.50469 18.6877 5.56302 19.213 6.77969C19.7383 7.99635 20.0007 9.29635 20 10.6797C20 12.063 19.7373 13.363 19.212 14.5797C18.6867 15.7964 17.9743 16.8547 17.075 17.7547C16.175 18.6547 15.1167 19.3674 13.9 19.8927C12.6833 20.418 11.3833 20.6804 10 20.6797Z" fill="#A8CF45"/>
</svg>
