<svg width="77" height="78" viewBox="0 0 77 78" fill="none" xmlns="http://www.w3.org/2000/svg">
<path d="M51.8337 16.1992L45.2077 12.6873C45.066 12.6122 44.9074 12.5751 44.7471 12.5794C44.5869 12.5838 44.4305 12.6296 44.2931 12.7123C44.1558 12.795 44.0422 12.9118 43.9633 13.0514C43.8844 13.1909 43.8431 13.3485 43.8431 13.5089V15.1346H16.7686C16.255 15.1346 15.8392 15.551 15.8392 16.0639V17.1814H15.8359V35.6132C15.8359 36.1268 16.2523 36.5426 16.7652 36.5426H18.6782C19.1917 36.5426 19.6075 36.1268 19.6075 35.6132V18.9062H43.8424V20.5319C43.8424 20.6922 43.8838 20.8499 43.9626 20.9894C44.0415 21.129 44.1551 21.2458 44.2924 21.3285C44.4298 21.4112 44.5862 21.457 44.7465 21.4613C44.9067 21.4657 45.0654 21.4286 45.207 21.3535L51.833 17.8416C52.4926 17.4928 52.4926 16.5487 51.8337 16.1992Z" fill="#009051"/>
<path d="M17.7107 20.0325C17.0779 20.0325 16.4532 20.0653 15.8352 20.1235V35.6126C15.8352 36.1261 16.251 36.5419 16.7646 36.5419H18.6775C19.1911 36.5419 19.6069 36.1261 19.6069 35.6126V20.1255C18.9766 20.0644 18.3438 20.0333 17.7107 20.0325Z" fill="#007140"/>
<path d="M60.2348 42.3196H58.3218C57.8083 42.3196 57.3925 42.736 57.3925 43.2489V59.9553H33.1575V58.3296C33.1576 58.1692 33.1162 58.0116 33.0374 57.872C32.9585 57.7325 32.8449 57.6156 32.7076 57.533C32.5702 57.4503 32.4138 57.4045 32.2535 57.4001C32.0933 57.3958 31.9346 57.4329 31.793 57.508L25.167 61.0199C24.5081 61.3694 24.5081 62.3135 25.167 62.6623L31.793 66.1742C32.4123 66.5023 33.1575 66.0537 33.1575 65.3526V63.7269H60.2314C60.745 63.7269 61.1608 63.3105 61.1608 62.7976V61.6807H61.1641V43.2489C61.1641 42.7354 60.7483 42.3196 60.2348 42.3196Z" fill="#A8CF45"/>
<path d="M60.2348 42.3196H58.3218C57.8083 42.3196 57.3925 42.7354 57.3925 43.2489V59.1786C58.0071 59.2368 58.6298 59.2696 59.2599 59.2696C59.9027 59.2696 60.5374 59.2361 61.1648 59.1759V43.2489C61.1646 43.0024 61.0665 42.766 60.8921 42.5917C60.7178 42.4175 60.4813 42.3196 60.2348 42.3196Z" fill="#FBFFF2"/>
<path d="M59.3108 57.463C69.0803 57.463 77 49.5432 77 39.7737C77 30.0042 69.0803 22.0845 59.3108 22.0845C49.5413 22.0845 41.6215 30.0042 41.6215 39.7737C41.6215 49.5432 49.5413 57.463 59.3108 57.463Z" fill="#A8CF45"/>
<path d="M59.3108 53.8835C67.1041 53.8835 73.4219 47.5658 73.4219 39.7725C73.4219 31.9791 67.1041 25.6614 59.3108 25.6614C51.5174 25.6614 45.1997 31.9791 45.1997 39.7725C45.1997 47.5658 51.5174 53.8835 59.3108 53.8835Z" fill="#009051"/>
<path d="M66.9358 38.8531C66.9358 33.7323 62.7845 29.5803 57.663 29.5803C52.5421 29.5803 48.3902 33.7316 48.3902 38.8531C48.3902 42.2297 50.2013 45.1758 52.899 46.7975L52.8977 46.7969C51.6773 47.8179 50.824 49.2098 50.4678 50.7607C52.9704 52.7838 56.092 53.886 59.3101 53.8829C60.7851 53.8829 62.2066 53.6545 63.5431 53.2354C64.0011 53.0144 64.4477 52.7727 64.8769 52.5049C64.8775 52.4661 64.8829 52.4286 64.8829 52.3904C64.8829 50.1748 63.8919 48.1936 62.3332 46.8551C65.0837 45.2461 66.9358 42.2693 66.9358 38.8531Z" fill="#007140"/>
<path d="M55.9837 49.5864C55.4875 48.7226 55.0557 47.5536 55.5418 46.5573C55.5572 46.5258 55.5726 46.5044 55.588 46.4756C55.3114 46.3443 55.0429 46.201 54.7818 46.0437C53.9631 46.7277 53.3046 47.5833 52.853 48.5498C52.4015 49.5164 52.1678 50.5704 52.1685 51.6373C52.1685 51.743 52.1799 51.8455 52.1846 51.9499C53.8627 52.9377 55.7283 53.5648 57.6623 53.7912L55.9837 49.5864ZM64.218 46.1013C63.9475 46.2593 63.6696 46.4046 63.3824 46.5352L63.3951 46.5573C63.8812 47.5536 63.45 48.7226 62.9539 49.5864L61.2947 53.7397C63.2364 53.4673 65.0992 52.7901 66.7623 51.7517C66.763 51.7129 66.7684 51.6754 66.7684 51.6373C66.7686 50.585 66.5407 49.5452 66.1004 48.5895C65.6601 47.6338 65.0179 46.7849 64.218 46.1013Z" fill="#FDCC5C"/>
<path d="M57.9087 50.9677L58.4865 49.6674C58.4833 49.6668 58.4802 49.6659 58.4771 49.6647L56.8655 50.8251C56.8655 50.8251 56.4022 50.3135 55.9837 49.5857L57.663 53.7899C57.8297 53.8093 57.9977 53.8227 58.1665 53.8361L58.5916 51.65L57.9087 50.9677ZM62.0714 50.8257L60.4597 49.6654C60.4565 49.666 60.4534 49.6669 60.4504 49.6681L61.0282 50.9683L60.3452 51.6513L60.7671 53.82C60.9452 53.8013 61.1179 53.7645 61.294 53.7397L62.9532 49.5864C62.5354 50.3142 62.0714 50.8257 62.0714 50.8257Z" fill="#FBFFF2"/>
<path d="M63.3944 46.5572C63.3904 46.5485 63.3864 46.5438 63.3817 46.5351C63.061 46.6811 62.7336 46.813 62.3948 46.9221C62.4075 47.0206 62.4289 47.1163 62.4289 47.2181C62.4289 48.2197 61.7801 49.0801 60.8387 49.5167C60.7162 49.5736 60.591 49.6238 60.4591 49.6653L62.0707 50.8257C62.0707 50.8257 62.534 50.3141 62.9525 49.5863C63.4493 48.7226 63.8812 47.5535 63.3944 46.5572ZM58.0975 49.5167C57.1561 49.0801 56.5073 48.2204 56.5073 47.2181C56.5073 47.0975 56.5294 46.9824 56.5475 46.8666C56.2206 46.7541 55.9002 46.6233 55.588 46.4749C55.5726 46.5043 55.5572 46.5251 55.5418 46.5565C55.0557 47.5529 55.4875 48.7219 55.9837 49.5857C56.237 50.0263 56.5323 50.4413 56.8655 50.825L58.4771 49.6647C58.3474 49.624 58.2206 49.5745 58.0975 49.5167Z" fill="#A8CF45"/>
<path d="M62.3955 46.922C61.4755 47.2194 60.5146 47.3712 59.5478 47.372C58.826 47.372 58.127 47.2816 57.4527 47.1256C57.1468 47.0545 56.8447 46.968 56.5475 46.8665C56.5294 46.9823 56.5073 47.0975 56.5073 47.218C56.5073 48.2203 57.1561 49.08 58.0975 49.5166C58.2237 49.5757 58.3536 49.6262 58.4865 49.6679C58.7952 49.7643 59.1226 49.8266 59.4681 49.8266C59.8143 49.8266 60.141 49.7643 60.4497 49.6679L60.4591 49.6652C60.591 49.6237 60.7162 49.5735 60.8387 49.5166C61.7801 49.08 62.4289 48.2203 62.4289 47.218C62.4296 47.1169 62.4082 47.0205 62.3955 46.922Z" fill="#C9B77D"/>
<path d="M55.6864 42.1147C55.0945 42.1147 54.6144 41.4974 54.6144 40.7361C54.6144 39.9748 55.0945 39.3574 55.6864 39.3574C56.2783 39.3574 56.7584 39.9748 56.7584 40.7361C56.7584 41.4974 56.2783 42.1147 55.6864 42.1147ZM62.68 42.1147C62.0881 42.1147 61.608 41.4974 61.608 40.7361C61.608 39.9748 62.0881 39.3574 62.68 39.3574C63.2719 39.3574 63.752 39.9748 63.752 40.7361C63.752 41.4974 63.2719 42.1147 62.68 42.1147Z" fill="#FFEEAD"/>
<path d="M61.0282 50.9675L60.4504 49.6672C60.1417 49.7637 59.8143 49.8259 59.4688 49.8259C59.1354 49.8233 58.8044 49.7698 58.4872 49.6672L57.9094 50.9675L58.5923 51.6505L58.1671 53.8366C58.5455 53.8667 58.9251 53.8942 59.3114 53.8942C59.8036 53.8942 60.289 53.8681 60.7677 53.8192L60.3459 51.6505L61.0282 50.9675Z" fill="#4F4F4F"/>
<path d="M59.5478 47.372C64.669 47.372 68.8206 43.2205 68.8206 38.0992C68.8206 32.978 64.669 28.8264 59.5478 28.8264C54.4266 28.8264 50.275 32.978 50.275 38.0992C50.275 43.2205 54.4266 47.372 59.5478 47.372Z" fill="#FFEEAD"/>
<path d="M55.6864 42.1147C56.2784 42.1147 56.7584 41.4975 56.7584 40.7361C56.7584 39.9747 56.2784 39.3574 55.6864 39.3574C55.0944 39.3574 54.6144 39.9747 54.6144 40.7361C54.6144 41.4975 55.0944 42.1147 55.6864 42.1147Z" fill="#4F4F4F"/>
<path d="M62.68 42.1147C63.272 42.1147 63.752 41.4975 63.752 40.7361C63.752 39.9747 63.272 39.3574 62.68 39.3574C62.088 39.3574 61.608 39.9747 61.608 40.7361C61.608 41.4975 62.088 42.1147 62.68 42.1147Z" fill="#4F4F4F"/>
<path d="M59.5478 28.8271C54.4263 28.8271 50.275 32.9785 50.275 38.1C50.275 39.1438 50.4551 40.1441 50.7731 41.0802C50.8006 40.801 50.8294 40.5204 50.8977 40.2479C51.0035 39.8228 51.201 39.4264 51.4092 39.04C51.8618 38.1984 52.3854 37.3976 52.9452 36.6229C54.4303 36.5606 55.9382 36.6262 57.4166 36.4649C59.3797 36.2513 61.3114 35.577 62.9599 34.501C63.4334 35.9208 64.3561 37.1478 65.5886 37.9968C66.0814 38.3323 66.6197 38.5981 67.1828 38.7909C67.5136 40.027 67.671 41.3052 67.6616 42.5847C68.423 41.2124 68.822 39.6687 68.8206 38.0993C68.8206 32.9785 64.6686 28.8271 59.5478 28.8271Z" fill="#4F4F4F"/>
<path d="M17.7026 57.4631C27.4795 57.4631 35.4053 49.5374 35.4053 39.7605C35.4053 29.9836 27.4795 22.0579 17.7026 22.0579C7.92574 22.0579 0 29.9836 0 39.7605C0 49.5374 7.92574 57.4631 17.7026 57.4631Z" fill="#009051"/>
<path d="M22.9949 27.6507C22.837 27.2345 22.5565 26.8761 22.1903 26.623C21.8242 26.3698 21.3898 26.2339 20.9447 26.2333H12.1051C12.1077 26.1951 12.1164 26.1583 12.1164 26.1188V25.2289C12.116 24.8011 11.9493 24.3901 11.6516 24.0828C11.3539 23.7755 10.9485 23.5959 10.5209 23.5818C9.03535 24.2413 7.64771 25.1022 6.39702 26.1402C6.39903 26.1717 6.40438 26.2018 6.40639 26.2333H6.28989C5.29115 27.0761 4.38827 28.0264 3.59756 29.0669V41.3869H16.6427C17.2868 39.8998 18.1773 38.5017 19.2145 37.2449H23.1449V28.4335C23.1449 28.1569 23.0886 27.8945 22.9949 27.6507Z" fill="#007140"/>
<path d="M17.7026 54.0463C25.4926 54.0463 31.8077 47.7313 31.8077 39.9412C31.8077 32.1512 25.4926 25.8362 17.7026 25.8362C9.91261 25.8362 3.59756 32.1512 3.59756 39.9412C3.59756 47.7313 9.91261 54.0463 17.7026 54.0463Z" fill="#FFEEAD"/>
<path d="M3.59756 39.9411C3.59756 44.979 6.2477 49.388 10.2209 51.8828V27.9988C6.2477 30.4936 3.59756 34.9027 3.59756 39.9411Z" fill="#FFF0E6"/>
<path d="M9.13353 28.7734H7.93167C7.32303 28.7734 6.83023 29.2669 6.83023 29.8749V31.0767C6.83023 31.6854 7.3237 32.1782 7.93167 32.1782H9.13353C9.74217 32.1782 10.235 31.6847 10.235 31.0767V29.8749C10.235 29.2669 9.7415 28.7734 9.13353 28.7734ZM18.245 28.7734H17.0431C16.4345 28.7734 15.9417 29.2669 15.9417 29.8749V31.0767C15.9417 31.6854 16.4351 32.1782 17.0431 32.1782H18.245C18.8536 32.1782 19.3464 31.6847 19.3464 31.0767V29.8749C19.3464 29.2669 18.8529 28.7734 18.245 28.7734ZM22.8 28.7734H21.5982C20.9895 28.7734 20.4967 29.2669 20.4967 29.8749V31.0767C20.4967 31.6854 20.9902 32.1782 21.5982 32.1782H22.8C23.4087 32.1782 23.9015 31.6847 23.9015 31.0767V29.8749C23.9016 29.7302 23.8731 29.5869 23.8178 29.4533C23.7625 29.3196 23.6814 29.1981 23.5791 29.0958C23.4768 28.9936 23.3553 28.9124 23.2216 28.8571C23.088 28.8018 22.9447 28.7733 22.8 28.7734ZM9.13353 33.1798H7.93167C7.32303 33.1798 6.83023 33.6733 6.83023 34.2813V35.4832C6.83023 36.0918 7.3237 36.5846 7.93167 36.5846H9.13353C9.74217 36.5846 10.235 36.0911 10.235 35.4832V34.2813C10.235 33.6733 9.7415 33.1798 9.13353 33.1798ZM13.6893 33.1798H12.4874C11.8788 33.1798 11.386 33.6733 11.386 34.2813V35.4832C11.386 36.0918 11.8794 36.5846 12.4874 36.5846H13.6893C14.2979 36.5846 14.7907 36.0911 14.7907 35.4832V34.2813C14.7907 33.6733 14.2972 33.1798 13.6893 33.1798ZM18.245 33.1798H17.0431C16.4345 33.1798 15.9417 33.6733 15.9417 34.2813V35.4832C15.9417 36.0918 16.4351 36.5846 17.0431 36.5846H18.245C18.8536 36.5846 19.3464 36.0911 19.3464 35.4832V34.2813C19.3464 33.6733 18.8529 33.1798 18.245 33.1798ZM9.13353 37.5863H7.93167C7.32303 37.5863 6.83023 38.0791 6.83023 38.6877V39.8896C6.83023 40.4982 7.3237 40.991 7.93167 40.991H9.13353C9.74217 40.991 10.235 40.4982 10.235 39.8896V38.6877C10.235 38.0797 9.7415 37.5863 9.13353 37.5863ZM13.6893 41.9927H12.4874C11.8788 41.9927 11.386 42.4861 11.386 43.0941V44.296C11.386 44.9046 11.8794 45.3974 12.4874 45.3974H13.6893C14.2979 45.3974 14.7907 44.9039 14.7907 44.296V43.0941C14.7907 42.4861 14.2972 41.9927 13.6893 41.9927Z" fill="#FFCC5C"/>
<path d="M25.0042 27.8897C24.8464 27.4736 24.5658 27.1152 24.1996 26.8622C23.8335 26.6092 23.3991 26.4734 22.954 26.4729H14.1138C14.1164 26.4341 14.1251 26.3972 14.1251 26.3584V25.4685C14.125 25.0302 13.9507 24.6098 13.6407 24.2998C13.3308 23.9898 12.9104 23.8156 12.472 23.8154H10.5657V21.9714C10.5657 21.8196 10.5054 21.674 10.3981 21.5666C10.2907 21.4592 10.1451 21.3989 9.99325 21.3989C9.84142 21.3989 9.69581 21.4592 9.58845 21.5666C9.48109 21.674 9.42077 21.8196 9.42077 21.9714V23.9426C9.11962 24.0681 8.86233 24.2798 8.68133 24.5513C8.50034 24.8227 8.40374 25.1416 8.40371 25.4679V26.3577C8.40371 26.3972 8.41241 26.4341 8.41509 26.4722H7.80645C7.22293 26.4722 6.6633 26.704 6.25068 27.1166C5.83807 27.5293 5.60626 28.0889 5.60626 28.6724V47.1692C5.98323 47.7985 6.39635 48.4032 6.86371 48.9636C7.08734 49.2321 7.32504 49.4872 7.56809 49.7383C10.1325 52.3904 13.7214 54.0463 17.7026 54.0463C17.7328 54.0463 17.7622 54.0422 17.793 54.0416V39.1699C17.793 38.5231 18.1613 37.968 18.6963 37.6848C18.9369 37.5542 19.2059 37.485 19.4797 37.4832H25.1542V28.6717C25.1542 28.3952 25.0973 28.1334 25.0042 27.8897ZM10.235 39.8896C10.235 40.4983 9.7415 40.9911 9.13353 40.9911H7.93166C7.78699 40.9912 7.64373 40.9627 7.51006 40.9074C7.37639 40.8521 7.25493 40.771 7.15263 40.6687C7.05034 40.5664 6.96921 40.4449 6.91389 40.3112C6.85857 40.1776 6.83014 40.0343 6.83023 39.8896V38.6878C6.83023 38.0791 7.3237 37.5863 7.93166 37.5863H9.13353C9.74217 37.5863 10.235 38.0798 10.235 38.6878V39.8896ZM10.235 35.4832C10.235 36.0919 9.7415 36.5847 9.13353 36.5847H7.93166C7.78702 36.5847 7.64379 36.5562 7.51016 36.5008C7.37653 36.4455 7.25511 36.3643 7.15283 36.2621C7.05055 36.1598 6.96942 36.0384 6.91407 35.9047C6.85872 35.7711 6.83023 35.6279 6.83023 35.4832V34.2814C6.83023 33.6734 7.3237 33.1799 7.93166 33.1799H9.13353C9.74217 33.1799 10.235 33.6734 10.235 34.2814V35.4832ZM10.235 31.0768C10.235 31.6855 9.7415 32.1783 9.13353 32.1783H7.93166C7.63954 32.1783 7.35939 32.0622 7.15283 31.8557C6.94627 31.6491 6.83023 31.3689 6.83023 31.0768V29.875C6.83023 29.2663 7.3237 28.7735 7.93166 28.7735H9.13353C9.74217 28.7735 10.235 29.267 10.235 29.875V31.0768ZM14.7907 48.7031C14.7907 49.3111 14.2972 49.8046 13.6893 49.8046H12.4874C12.1953 49.8046 11.9151 49.6885 11.7086 49.482C11.502 49.2754 11.3859 48.9952 11.3859 48.7031V47.5013C11.3859 46.8933 11.8794 46.3998 12.4874 46.3998H13.6893C14.2979 46.3998 14.7907 46.8933 14.7907 47.5013V48.7031ZM14.7907 44.296C14.7907 44.9047 14.2972 45.3975 13.6893 45.3975H12.4874C12.1953 45.3975 11.9151 45.2814 11.7086 45.0749C11.502 44.8683 11.3859 44.5882 11.3859 44.296V43.0942C11.3859 42.4855 11.8794 41.9927 12.4874 41.9927H13.6893C14.2979 41.9927 14.7907 42.4862 14.7907 43.0942V44.296ZM14.7907 35.4832C14.7907 36.0919 14.2972 36.5847 13.6893 36.5847H12.4874C12.3427 36.5847 12.1995 36.5562 12.0659 36.5008C11.9323 36.4455 11.8108 36.3643 11.7086 36.2621C11.6063 36.1598 11.5251 36.0384 11.4698 35.9047C11.4144 35.7711 11.3859 35.6279 11.3859 35.4832V34.2814C11.3859 33.6734 11.8794 33.1799 12.4874 33.1799H13.6893C14.2979 33.1799 14.7907 33.6734 14.7907 34.2814V35.4832ZM19.3464 35.4832C19.3464 36.0919 18.8529 36.5847 18.245 36.5847H17.0431C16.8985 36.5847 16.7552 36.5562 16.6216 36.5008C16.488 36.4455 16.3666 36.3643 16.2643 36.2621C16.162 36.1598 16.0809 36.0384 16.0255 35.9047C15.9702 35.7711 15.9417 35.6279 15.9417 35.4832V34.2814C15.9417 33.6734 16.4351 33.1799 17.0431 33.1799H18.245C18.8536 33.1799 19.3464 33.6734 19.3464 34.2814V35.4832ZM19.3464 31.0768C19.3464 31.6855 18.8529 32.1783 18.245 32.1783H17.0431C16.8985 32.1783 16.7552 32.1498 16.6216 32.0944C16.488 32.0391 16.3666 31.9579 16.2643 31.8557C16.162 31.7534 16.0809 31.632 16.0255 31.4983C15.9702 31.3647 15.9417 31.2215 15.9417 31.0768V29.875C15.9417 29.2663 16.4351 28.7735 17.0431 28.7735H18.245C18.8536 28.7735 19.3464 29.267 19.3464 29.875V31.0768ZM23.9021 31.0768C23.9021 31.6855 23.4087 32.1783 22.8007 32.1783H21.5988C21.4542 32.1783 21.311 32.1498 21.1773 32.0944C21.0437 32.0391 20.9223 31.9579 20.82 31.8557C20.7177 31.7534 20.6366 31.632 20.5812 31.4983C20.5259 31.3647 20.4974 31.2215 20.4974 31.0768V29.875C20.4974 29.2663 20.9909 28.7735 21.5988 28.7735H22.8007C23.4093 28.7735 23.9021 29.267 23.9021 29.875V31.0768Z" fill="#FF6600"/>
<path d="M13.6893 46.3992H12.4874C11.8788 46.3992 11.386 46.8926 11.386 47.5006V48.7025C11.386 49.3111 11.8794 49.8039 12.4874 49.8039H13.6893C14.2979 49.8039 14.7907 49.3104 14.7907 48.7025V47.5006C14.7907 46.8926 14.2972 46.3992 13.6893 46.3992Z" fill="#FFCC5C"/>
<path d="M17.3083 38.3349C16.9829 38.3349 16.6815 38.4233 16.4124 38.5652C16.1019 38.7271 15.8416 38.9708 15.6596 39.27C15.4776 39.5692 15.3809 39.9124 15.3799 40.2626V53.8367C16.1372 53.9632 16.9092 54.0456 17.7026 54.0456C17.7328 54.0456 17.7622 54.0416 17.793 54.0409V39.1698C17.793 38.8632 17.8807 38.5806 18.0247 38.3342L17.3083 38.3349Z" fill="#007140"/>
<path d="M28.8121 37.4839H19.4817C19.1964 37.4839 18.9326 37.5609 18.6969 37.6854C18.4249 37.8272 18.1969 38.0407 18.0375 38.3029C17.8782 38.565 17.7936 38.8658 17.793 39.1725V54.0643C20.4015 54.0488 22.9541 53.3066 25.1643 51.9211C25.2051 51.8956 25.2473 51.8715 25.2881 51.8454H19.5593C19.3832 51.8454 19.2142 51.7754 19.0897 51.6508C18.9651 51.5263 18.8951 51.3573 18.8951 51.1812V50.6951C18.8951 50.3282 19.1924 50.0309 19.5593 50.0309H27.5807C28.1196 49.499 28.6149 48.9246 29.0618 48.3134C28.9883 48.343 28.91 48.3589 28.8308 48.3603H19.5593C19.3832 48.3603 19.2142 48.2903 19.0897 48.1658C18.9651 48.0412 18.8951 47.8723 18.8951 47.6961V47.21C18.8951 46.8431 19.1924 46.5458 19.5593 46.5458H28.8308C29.1977 46.5458 29.495 46.8431 29.495 47.21V47.6961C29.495 47.7035 29.491 47.7095 29.491 47.7169C29.8728 47.1339 30.2107 46.5233 30.502 45.8903V39.1725C30.5017 38.7246 30.3235 38.295 30.0066 37.9784C29.6897 37.6618 29.26 37.4839 28.8121 37.4839ZM29.4944 44.211C29.4942 44.3871 29.4241 44.5558 29.2996 44.6802C29.175 44.8047 29.0062 44.8745 28.8301 44.8745H19.5593C19.3833 44.8745 19.2145 44.8047 19.0899 44.6802C18.9654 44.5558 18.8953 44.3871 18.8951 44.211V43.7242C18.8951 43.3573 19.1924 43.06 19.5593 43.06H28.8308C29.1977 43.06 29.495 43.3573 29.495 43.7242L29.4944 44.211ZM29.4944 40.7259C29.4944 40.9021 29.4244 41.071 29.2998 41.1956C29.1752 41.3202 29.0063 41.3901 28.8301 41.3901H19.5593C19.3924 41.3894 19.232 41.3254 19.1106 41.2109C18.9891 41.0964 18.9157 40.94 18.9052 40.7735C18.9038 40.7567 18.8958 40.7433 18.8958 40.7266V40.2405C18.8958 39.9486 19.0873 39.7082 19.3491 39.6191C19.4165 39.5932 19.4878 39.5787 19.56 39.5763H28.8315C29.1984 39.5763 29.4957 39.8736 29.4957 40.2405V40.7259H29.4944Z" fill="#009051"/>
<path d="M28.8308 39.5757H19.5594C19.4872 39.5782 19.4159 39.5927 19.3484 39.6185C19.2172 39.6614 19.1028 39.7445 19.0215 39.856C18.9401 39.9675 18.8959 40.1018 18.8951 40.2399V40.726C18.8951 40.7427 18.9032 40.7568 18.9045 40.7729C18.9152 40.9394 18.9887 41.0957 19.1101 41.2101C19.2315 41.3246 19.3918 41.3887 19.5587 41.3895H28.8301C29.0063 41.3895 29.1753 41.3196 29.2998 41.195C29.4244 41.0704 29.4944 40.9015 29.4944 40.7253V40.2392C29.4944 40.0632 29.4245 39.8945 29.3 39.77C29.1756 39.6456 29.0068 39.5757 28.8308 39.5757Z" fill="#FFCC5C"/>
<path d="M28.8308 43.0608H19.5594C19.3832 43.0608 19.2142 43.1308 19.0897 43.2553C18.9651 43.3799 18.8951 43.5488 18.8951 43.725V44.2118C18.8951 44.578 19.1924 44.8753 19.5594 44.8753H28.8308C29.0069 44.8753 29.1757 44.8054 29.3003 44.681C29.4248 44.5566 29.4949 44.3878 29.495 44.2118V43.725C29.4949 43.5489 29.4248 43.3801 29.3003 43.2555C29.1758 43.131 29.0069 43.061 28.8308 43.0608Z" fill="#FFCC5C"/>
<path d="M29.4903 47.7175C29.4903 47.7101 29.4944 47.7041 29.4944 47.6967V47.2106C29.4944 47.0344 29.4244 46.8655 29.2998 46.7409C29.1753 46.6164 29.0063 46.5464 28.8301 46.5464H19.5587C19.3825 46.5464 19.2136 46.6164 19.089 46.7409C18.9644 46.8655 18.8945 47.0344 18.8945 47.2106V47.6967C18.8945 48.0636 19.1918 48.3609 19.5587 48.3609H28.8301C28.9094 48.3595 28.9877 48.3436 29.0611 48.314C29.2071 48.1165 29.3551 47.9217 29.4903 47.7175Z" fill="#FFCC5C"/>
<path d="M19.5594 50.0315C19.3832 50.0315 19.2142 50.1015 19.0897 50.226C18.9651 50.3506 18.8951 50.5195 18.8951 50.6957V51.1818C18.8951 51.5487 19.1924 51.846 19.5594 51.846H25.2882C26.1127 51.3216 26.881 50.7136 27.5807 50.0315H19.5594Z" fill="#FFCC5C"/>
</svg>
