<svg width="77" height="78" viewBox="0 0 77 78" fill="none" xmlns="http://www.w3.org/2000/svg">
<g clip-path="url(#clip0_1_792)">
<path d="M66.8949 15.3322C55.3657 15.9756 42.9352 4.76978 42.9352 4.76978H34.0648C34.0648 4.76978 21.6343 15.9756 10.1057 15.3315L6.17673 21.5143V31.6896C6.17673 31.6896 5.98992 57.7089 33.0263 77.9305H43.9744C71.0107 57.7089 70.8239 31.6896 70.8239 31.6896V21.5143L66.8949 15.3322Z" fill="#007140"/>
<path d="M66.8949 11.4929C55.3657 12.137 42.9352 0.931152 42.9352 0.931152H34.0648C34.0648 0.931152 21.6343 12.137 10.1057 11.4929L6.17673 17.6756V27.851C6.17673 27.851 5.98992 53.8703 33.0263 74.0919H43.9744C71.0107 53.8703 70.8239 27.851 70.8239 27.851V17.6756L66.8949 11.4929Z" fill="#009051"/>
<path d="M62.2193 14.9337C52.589 15.472 42.2054 6.11084 42.2054 6.11084H37.736V23.4827H62.4691C63.075 23.4833 63.6709 23.6373 64.2012 23.9305C64.7315 24.2237 65.1789 24.6465 65.5016 25.1593V20.0981L62.2193 14.9337ZM37.736 56.6697V67.2261H43.0725C47.6121 63.8307 51.2197 60.2405 54.1076 56.6697H37.736Z" fill="#FFEEAD"/>
<path d="M34.7946 6.11084C34.7946 6.11084 33.7802 7.0248 32.0923 8.2655C31.3321 8.82407 30.5558 9.36017 29.7642 9.87313C29.3296 10.1543 28.8737 10.4396 28.3983 10.7241C27.6597 11.1657 26.9076 11.5844 26.1432 11.9796C25.6176 12.2501 25.0779 12.5126 24.5262 12.7616C23.6904 13.141 22.8376 13.4815 21.9704 13.782C21.0983 14.0848 20.2092 14.3361 19.3076 14.5346C18.7083 14.6652 18.1044 14.7683 17.4998 14.84C16.8975 14.9122 16.2918 14.9509 15.6852 14.9558C15.3833 14.9578 15.0813 14.9504 14.7807 14.9337L11.4984 20.0981V24.9102C12.156 24.0478 13.1831 23.4827 14.3508 23.4827H37.736V6.11084H34.7946ZM22.8924 56.6697C24.0246 58.0736 25.2215 59.424 26.4793 60.7166C28.7891 63.0766 31.2794 65.2531 33.9275 67.2261H37.736V56.6697H22.8924Z" fill="#FFCC5C"/>
<path d="M22.1311 55.723C20.9043 54.1392 19.7648 52.4896 18.7177 50.7816C18.0772 49.7356 17.4729 48.6679 16.9058 47.5804C15.8931 45.6373 15.0039 43.6322 14.2436 41.5771C13.6126 39.8712 13.0772 38.1314 12.64 36.3659C12.3785 35.307 12.1551 34.239 11.9705 33.164C11.8726 32.591 11.7876 32.016 11.7154 31.4392C11.4904 29.6374 11.4978 28.5969 11.4978 28.5969V24.9089C11.0171 25.5305 10.7551 26.2933 10.7525 27.079V46.5908C12.2855 50.1096 14.1339 53.4823 16.2751 56.6678H22.8917C22.6373 56.3537 22.3748 56.0384 22.1311 55.723ZM65.5015 25.1594V28.5982C65.5015 28.5982 65.5879 42.475 54.1075 56.6691H60.7242C62.7817 53.6093 64.5695 50.3766 66.0673 47.0073V27.081C66.0655 26.3997 65.8692 25.733 65.5015 25.1594Z" fill="#007140"/>
<path d="M62.4691 23.4827H37.736V56.669H54.1076C65.5879 42.4742 65.5016 28.5981 65.5016 28.5981V25.1593C65.1789 24.6464 64.7315 24.2237 64.2012 23.9305C63.6709 23.6373 63.075 23.4832 62.4691 23.4827Z" fill="#C9B77D"/>
<path d="M14.3508 23.4827C13.1831 23.4827 12.1553 24.0478 11.4984 24.9102V28.5981C11.4984 28.5981 11.4911 29.638 11.716 31.4405C11.8295 32.3503 11.9749 33.2559 12.1519 34.1555C12.2858 34.8425 12.4465 35.5817 12.6407 36.3671C13.078 38.1326 13.6134 39.8724 14.2443 41.5783C15.0046 43.6334 15.8938 45.6385 16.9065 47.5817C17.4736 48.6692 18.0779 49.7369 18.7184 50.7829C19.7651 52.4911 20.9046 54.1407 22.1318 55.7242C22.3755 56.0396 22.638 56.355 22.8931 56.6703H37.7367V23.4827H14.3508Z" fill="#D6A041"/>
<path d="M62.4691 19.2151H14.3508C13.3966 19.2151 12.4816 19.5941 11.8069 20.2688C11.1322 20.9435 10.7532 21.8585 10.7532 22.8127V48.8032C10.7532 49.7573 11.1322 50.6724 11.8069 51.347C12.4816 52.0217 13.3966 52.4008 14.3508 52.4008H62.4691C63.4232 52.4008 64.3383 52.0217 65.013 51.347C65.6876 50.6724 66.0667 49.7573 66.0667 48.8032V22.8127C66.0667 21.8585 65.6876 20.9435 65.013 20.2688C64.3383 19.5941 63.4232 19.2151 62.4691 19.2151Z" fill="#A8CF45"/>
<path d="M10.7532 23.564H66.0673V31.1696H10.7532V23.564Z" fill="#4F4F4F"/>
<path d="M54.8347 39.29C56.5598 39.29 57.9582 37.8916 57.9582 36.1665C57.9582 34.4414 56.5598 33.043 54.8347 33.043C53.1096 33.043 51.7112 34.4414 51.7112 36.1665C51.7112 37.8916 53.1096 39.29 54.8347 39.29Z" fill="#009051"/>
<path d="M58.8889 39.29C60.614 39.29 62.0125 37.8916 62.0125 36.1665C62.0125 34.4414 60.614 33.043 58.8889 33.043C57.1639 33.043 55.7654 34.4414 55.7654 36.1665C55.7654 37.8916 57.1639 39.29 58.8889 39.29Z" fill="#FF6600"/>
<path d="M58.8889 47.4507C60.614 47.4507 62.0125 46.0522 62.0125 44.3271C62.0125 42.6021 60.614 41.2036 58.8889 41.2036C57.1639 41.2036 55.7654 42.6021 55.7654 44.3271C55.7654 46.0522 57.1639 47.4507 58.8889 47.4507Z" fill="#009051"/>
<path d="M54.8347 47.4507C56.5598 47.4507 57.9582 46.0522 57.9582 44.3271C57.9582 42.6021 56.5598 41.2036 54.8347 41.2036C53.1096 41.2036 51.7112 42.6021 51.7112 44.3271C51.7112 46.0522 53.1096 47.4507 54.8347 47.4507Z" fill="#FF6600"/>
<path d="M13.9939 34.4497H44.9084V40.0767H13.9939V34.4497Z" fill="#FFEEAD"/>
<path d="M44.0828 42.4102H14.3126C13.8586 42.4102 13.487 42.7818 13.487 43.2357C13.487 43.6897 13.8586 44.0613 14.3126 44.0613H44.0821C44.5361 44.0613 44.9077 43.6897 44.9077 43.2357C44.9074 43.017 44.8204 42.8073 44.6658 42.6526C44.5112 42.4979 44.3015 42.4107 44.0828 42.4102ZM44.0828 46.6365H14.3126C13.8586 46.6365 13.487 47.0081 13.487 47.462C13.487 47.916 13.8586 48.2876 14.3126 48.2876H44.0821C44.5361 48.2876 44.9077 47.916 44.9077 47.462C44.9074 47.2433 44.8204 47.0336 44.6658 46.8789C44.5112 46.7242 44.3015 46.637 44.0828 46.6365Z" fill="#4F4F4F"/>
</g>
<defs>
<clipPath id="clip0_1_792">
<rect width="77" height="77" fill="white" transform="translate(0 0.931152)"/>
</clipPath>
</defs>
</svg>
