<svg width="24" height="25" viewBox="0 0 24 25" fill="none" xmlns="http://www.w3.org/2000/svg">
<path d="M19 8.93164C18.1667 8.93164 17.4583 8.63997 16.875 8.05664C16.2917 7.47331 16 6.76497 16 5.93164C16 5.09831 16.2917 4.38997 16.875 3.80664C17.4583 3.22331 18.1667 2.93164 19 2.93164C19.8333 2.93164 20.5417 3.22331 21.125 3.80664C21.7083 4.38997 22 5.09831 22 5.93164C22 6.76497 21.7083 7.47331 21.125 8.05664C20.5417 8.63997 19.8333 8.93164 19 8.93164ZM4 20.9316C3.45 20.9316 2.979 20.7356 2.587 20.3436C2.195 19.9516 1.99934 19.481 2 18.9316V6.93164C2 6.38164 2.196 5.91064 2.588 5.51864C2.98 5.12664 3.45067 4.93097 4 4.93164H14.1C14.0333 5.26497 14 5.59831 14 5.93164C14 6.26497 14.0333 6.59831 14.1 6.93164C14.2167 7.46497 14.4083 7.96097 14.675 8.41964C14.9417 8.87831 15.2667 9.28231 15.65 9.63164L12 11.9316L5.3 7.73164C5.01667 7.54831 4.729 7.53997 4.437 7.70664C4.145 7.87331 3.99934 8.12331 4 8.45664C4 8.60664 4.03333 8.74431 4.1 8.86964C4.16667 8.99497 4.26667 9.09897 4.4 9.18164L11.475 13.6066C11.6417 13.7066 11.8167 13.7566 12 13.7566C12.1833 13.7566 12.3583 13.7066 12.525 13.6066L17.275 10.6316C17.5583 10.7316 17.8417 10.8066 18.125 10.8566C18.4083 10.9066 18.7 10.9316 19 10.9316C19.5333 10.9316 20.0583 10.8483 20.575 10.6816C21.0917 10.515 21.5667 10.265 22 9.93164V18.9316C22 19.4816 21.804 19.9526 21.412 20.3446C21.02 20.7366 20.5493 20.9323 20 20.9316H4Z" fill="white"/>
</svg>
