<svg width="24" height="25" viewBox="0 0 24 25" fill="none" xmlns="http://www.w3.org/2000/svg">
<path d="M12 22.0047C11.7667 22.0047 11.5333 21.963 11.3 21.8797C11.0667 21.7964 10.8583 21.6714 10.675 21.5047C9.59167 20.5047 8.63333 19.5297 7.8 18.5797C6.96667 17.6297 6.271 16.709 5.713 15.8177C5.15433 14.9257 4.72933 14.0674 4.438 13.2427C4.14667 12.418 4.00067 11.6304 4 10.8797C4 8.37969 4.80433 6.38802 6.413 4.90469C8.02167 3.42135 9.884 2.67969 12 2.67969C14.1167 2.67969 15.9793 3.42135 17.588 4.90469C19.1967 6.38802 20.0007 8.37969 20 10.8797C20 11.6297 19.854 12.4174 19.562 13.2427C19.27 14.068 18.845 14.9264 18.287 15.8177C17.729 16.709 17.0333 17.6297 16.2 18.5797C15.3667 19.5297 14.4083 20.5047 13.325 21.5047C13.1417 21.6714 12.9333 21.7964 12.7 21.8797C12.4667 21.963 12.2333 22.0047 12 22.0047ZM12 12.6797C12.55 12.6797 13.021 12.484 13.413 12.0927C13.805 11.7014 14.0007 11.2304 14 10.6797C14 10.1297 13.804 9.65869 13.412 9.26669C13.02 8.87469 12.5493 8.67902 12 8.67969C11.45 8.67969 10.979 8.87569 10.587 9.26769C10.195 9.65969 9.99933 10.1304 10 10.6797C10 11.2297 10.196 11.7007 10.588 12.0927C10.98 12.4847 11.4507 12.6804 12 12.6797Z" fill="white"/>
</svg>
