<svg width="24" height="25" viewBox="0 0 24 25" fill="none" xmlns="http://www.w3.org/2000/svg">
<path d="M20 12.6797C19.7333 12.6797 19.4957 12.5837 19.287 12.3917C19.0783 12.1997 18.958 11.9624 18.926 11.6797C18.7093 10.1297 18.055 8.80869 16.963 7.71669C15.871 6.62469 14.55 5.97069 13 5.75469C12.7167 5.72135 12.479 5.60469 12.287 5.40469C12.095 5.20469 11.9993 4.96302 12 4.67969C12 4.39635 12.1 4.15869 12.3 3.96669C12.5 3.77469 12.7333 3.69569 13 3.72969C15.1 3.96302 16.8917 4.82135 18.375 6.30469C19.8583 7.78802 20.7167 9.57969 20.95 11.6797C20.9833 11.9464 20.904 12.1797 20.712 12.3797C20.52 12.5797 20.2827 12.6797 20 12.6797ZM15.825 12.6797C15.6083 12.6797 15.4167 12.6047 15.25 12.4547C15.0833 12.3047 14.9583 12.1047 14.875 11.8547C14.7417 11.3714 14.4873 10.942 14.112 10.5667C13.7367 10.1914 13.3077 9.93735 12.825 9.80469C12.575 9.72135 12.375 9.59635 12.225 9.42969C12.075 9.26302 12 9.06302 12 8.82969C12 8.49635 12.1167 8.22535 12.35 8.01669C12.5833 7.80802 12.8417 7.73735 13.125 7.80469C14.0583 8.02135 14.8627 8.46735 15.538 9.14269C16.2133 9.81802 16.659 10.622 16.875 11.5547C16.9417 11.838 16.8667 12.0964 16.65 12.3297C16.4333 12.563 16.1583 12.6797 15.825 12.6797ZM19.95 21.6797C17.8667 21.6797 15.8083 21.2254 13.775 20.3167C11.7417 19.408 9.89167 18.1207 8.225 16.4547C6.55833 14.788 5.271 12.938 4.363 10.9047C3.455 8.87135 3.00067 6.81302 3 4.72969C3 4.42969 3.1 4.17969 3.3 3.97969C3.5 3.77969 3.75 3.67969 4.05 3.67969H8.1C8.33333 3.67969 8.54167 3.75902 8.725 3.91769C8.90833 4.07635 9.01667 4.26369 9.05 4.47969L9.7 7.97969C9.73333 8.24635 9.725 8.47135 9.675 8.65469C9.625 8.83802 9.53333 8.99635 9.4 9.12969L6.975 11.5797C7.30833 12.1964 7.704 12.792 8.162 13.3667C8.62 13.9414 9.12433 14.4957 9.675 15.0297C10.1917 15.5464 10.7333 16.0257 11.3 16.4677C11.8667 16.9097 12.4667 17.3137 13.1 17.6797L15.45 15.3297C15.6 15.1797 15.796 15.067 16.038 14.9917C16.28 14.9164 16.5173 14.8957 16.75 14.9297L20.2 15.6297C20.4333 15.6964 20.625 15.8174 20.775 15.9927C20.925 16.168 21 16.3637 21 16.5797V20.6297C21 20.9297 20.9 21.1797 20.7 21.3797C20.5 21.5797 20.25 21.6797 19.95 21.6797Z" fill="white"/>
</svg>
