<svg width="18" height="19" viewBox="0 0 18 19" fill="none" xmlns="http://www.w3.org/2000/svg">
<path d="M2.16 5.01482C3.36 5.01482 4.32 4.03982 4.32 2.85482C4.32 1.66982 3.345 0.694824 2.16 0.694824C0.975 0.694824 0 1.66982 0 2.85482C0 4.03982 0.975 5.01482 2.16 5.01482ZM6.375 6.64982V18.6798H10.095V12.7398C10.095 11.1648 10.395 9.64983 12.33 9.64983C14.265 9.64983 14.265 11.4498 14.265 12.8298V18.6798H18V12.0798C18 8.83982 17.31 6.34982 13.53 6.34982C11.715 6.34982 10.5 7.33983 10.005 8.28483H9.96V6.63482H6.39L6.375 6.64982ZM0.3 6.64982H4.035V18.6798H0.3V6.64982Z" fill="white"/>
</svg>
