<svg width="77" height="78" viewBox="0 0 77 78" fill="none" xmlns="http://www.w3.org/2000/svg">
<g clip-path="url(#clip0_1_662)">
<path d="M34.6668 52.5425H33.872V59.9619H36.0193V53.895C36.0193 53.5363 35.8768 53.1923 35.6231 52.9386C35.3695 52.685 35.0255 52.5425 34.6668 52.5425Z" fill="#A8CF45"/>
<path d="M18.8925 39.9961H4.51689C3.59844 39.9961 2.71762 40.3609 2.06818 41.0104C1.41874 41.6598 1.05389 42.5406 1.05389 43.4591V57.1838C1.05389 58.1023 1.41874 58.9831 2.06818 59.6325C2.71762 60.282 3.59844 60.6468 4.51689 60.6468H22.3548V43.4591C22.3549 43.0043 22.2654 42.5541 22.0914 42.1339C21.9175 41.7138 21.6624 41.332 21.3409 41.0104C21.0194 40.6888 20.6377 40.4337 20.2176 40.2597C19.7975 40.0857 19.3472 39.9961 18.8925 39.9961Z" fill="#FF6600"/>
<path d="M18.8925 39.9956H4.51689C3.5985 39.9958 2.71778 40.3607 2.06838 41.0101C1.41898 41.6595 1.05407 42.5402 1.05389 43.4586V43.8597H22.3548V43.4586C22.3548 42.5403 21.99 41.6595 21.3407 41.0101C20.6914 40.3607 19.8108 39.9958 18.8925 39.9956Z" fill="#009051"/>
<path d="M31.9008 43.8777H22.3548V60.6463H31.9958C32.6167 60.6463 33.212 60.3997 33.651 59.9607C34.09 59.5217 34.3366 58.9263 34.3366 58.3055V46.3142C34.3367 45.9943 34.2738 45.6775 34.1514 45.3819C34.029 45.0862 33.8496 44.8176 33.6234 44.5914C33.3972 44.3651 33.1287 44.1856 32.8331 44.0632C32.5375 43.9407 32.2207 43.8777 31.9008 43.8777Z" fill="#A8CF45"/>
<path d="M1.05457 59.6541H32.5369V61.2402H1.05457V59.6541Z" fill="#009051"/>
<path d="M35.4943 56.7727H32.5141C31.9276 56.7727 31.4522 57.2481 31.4522 57.8346V60.1774C31.4522 60.764 31.9276 61.2394 32.5141 61.2394H35.4943C36.0809 61.2394 36.5563 60.764 36.5563 60.1774V57.8346C36.5563 57.2488 36.0809 56.7727 35.4943 56.7727ZM4.07698 56.7727H1.09608C0.50954 56.7727 0.0341492 57.2481 0.0341492 57.8346V60.1774C0.0341492 60.764 0.50954 61.2394 1.09608 61.2394H4.07631C4.66285 61.2394 5.13825 60.764 5.13825 60.1774V57.8346C5.13833 57.6952 5.11095 57.5571 5.05765 57.4283C5.00436 57.2995 4.9262 57.1824 4.82765 57.0838C4.72909 56.9852 4.61207 56.9069 4.48327 56.8536C4.35446 56.8002 4.21641 56.7727 4.07698 56.7727Z" fill="#009051"/>
<path d="M31.4006 46.28C30.7679 46.28 30.2811 46.809 30.3688 47.4016L31.0062 51.6948C31.0785 52.1809 31.5184 52.5425 32.038 52.5425H34.3366V46.28H31.4006ZM29.3973 46.9536C29.3417 46.5673 28.9928 46.28 28.5811 46.28H24.9098C24.4545 46.28 24.0863 46.6289 24.0863 47.0587V51.7638C24.0863 52.1936 24.4552 52.5425 24.9098 52.5425H29.2587C29.7582 52.5425 30.1425 52.126 30.0749 51.6586L29.3973 46.9536Z" fill="#4F4F4F"/>
<path d="M14.1439 60.5881C13.868 59.6998 13.3151 58.923 12.5662 58.3714C11.8172 57.8198 10.9114 57.5222 9.98122 57.5222C9.05104 57.5222 8.14525 57.8198 7.39628 58.3714C6.64731 58.923 6.09445 59.6998 5.81853 60.5881C5.61967 61.2289 6.11783 61.877 6.78873 61.877H13.1737C13.8446 61.877 14.3428 61.2289 14.1439 60.5881Z" fill="#007140"/>
<path d="M9.98119 64.9569C11.68 64.9569 13.0572 63.5797 13.0572 61.8809C13.0572 60.1821 11.68 58.8049 9.98119 58.8049C8.28238 58.8049 6.90521 60.1821 6.90521 61.8809C6.90521 63.5797 8.28238 64.9569 9.98119 64.9569Z" fill="#4F4F4F"/>
<path d="M9.9812 63.0251C10.6132 63.0251 11.1255 62.5128 11.1255 61.8809C11.1255 61.2489 10.6132 60.7366 9.9812 60.7366C9.34923 60.7366 8.83691 61.2489 8.83691 61.8809C8.83691 62.5128 9.34923 63.0251 9.9812 63.0251Z" fill="#FFEEAD"/>
<path d="M31.2158 60.5881C30.9399 59.6998 30.387 58.923 29.6381 58.3714C28.8891 57.8198 27.9833 57.5222 27.0531 57.5222C26.1229 57.5222 25.2171 57.8198 24.4682 58.3714C23.7192 58.923 23.1664 59.6998 22.8904 60.5881C22.6916 61.2289 23.1897 61.877 23.86 61.877H30.2449C30.9172 61.877 31.4147 61.2289 31.2158 60.5881Z" fill="#007140"/>
<path d="M27.0538 64.9571C28.7526 64.9571 30.1298 63.58 30.1298 61.8812C30.1298 60.1823 28.7526 58.8052 27.0538 58.8052C25.355 58.8052 23.9778 60.1823 23.9778 61.8812C23.9778 63.58 25.355 64.9571 27.0538 64.9571Z" fill="#4F4F4F"/>
<path d="M27.0538 63.0254C27.6858 63.0254 28.1981 62.5131 28.1981 61.8811C28.1981 61.2491 27.6858 60.7368 27.0538 60.7368C26.4218 60.7368 25.9095 61.2491 25.9095 61.8811C25.9095 62.5131 26.4218 63.0254 27.0538 63.0254Z" fill="#FFEEAD"/>
<path d="M54.7597 54.1233C56.7202 52.9649 58.0393 50.8384 58.0393 48.3991C58.0393 44.7246 55.0563 41.7463 51.3764 41.7463C47.6965 41.7463 44.7136 44.7252 44.7136 48.3991C44.7136 50.8096 46.0018 52.9147 47.9248 54.0817C47.3527 54.5694 46.8933 55.1754 46.5783 55.8579C46.2633 56.5404 46.1002 57.2832 46.1002 58.0349C46.1002 58.1105 46.1083 58.1835 46.1116 58.2578C47.312 58.9635 48.6462 59.4113 50.0292 59.5728C50.1484 59.5869 50.2689 59.5963 50.3888 59.6056C50.6593 59.6271 50.9305 59.6472 51.207 59.6472C51.5585 59.6472 51.906 59.6291 52.2488 59.5936C52.3767 59.5802 52.4999 59.5541 52.6258 59.536C54.0141 59.3414 55.3462 58.8578 56.5361 58.1165C56.5367 58.0891 56.5401 58.0623 56.5401 58.0349C56.5396 57.2936 56.3805 56.561 56.0734 55.8863C55.7663 55.2116 55.3184 54.6105 54.7597 54.1233ZM73.7546 54.1233C75.7151 52.9649 77.0341 50.8384 77.0341 48.3991C77.0341 44.7246 74.0512 41.7463 70.3713 41.7463C66.6914 41.7463 63.7085 44.7252 63.7085 48.3991C63.7085 50.8096 64.9967 52.9147 66.9197 54.0817C66.3475 54.5693 65.888 55.1753 65.573 55.8578C65.258 56.5403 65.0949 57.2831 65.0951 58.0349C65.0951 58.1105 65.1032 58.1835 65.1065 58.2578C66.3069 58.9635 67.6411 59.4113 69.0241 59.5728C69.1433 59.5869 69.2638 59.5963 69.3837 59.6056C69.6542 59.6271 69.9254 59.6472 70.2019 59.6472C70.5534 59.6472 70.9009 59.6291 71.2437 59.5936C71.3716 59.5802 71.4948 59.5541 71.6207 59.536C73.009 59.3414 74.3411 58.8578 75.531 58.1165C75.5316 58.0891 75.535 58.0623 75.535 58.0349C75.5346 57.2936 75.3756 56.5609 75.0685 55.8862C74.7614 55.2115 74.3134 54.6104 73.7546 54.1233Z" fill="#007140"/>
<path d="M65.15 57.7885C64.9023 57.9331 64.6479 58.0664 64.3847 58.1855C64.0915 58.3195 63.7915 58.44 63.4808 58.5404C63.4922 58.6301 63.5116 58.7185 63.5116 58.8109C63.5116 59.7282 62.9177 60.5156 62.056 60.9154C61.9431 60.9679 61.8271 61.0133 61.7085 61.0513L61.6998 61.054C61.4091 61.1474 61.1059 61.1962 60.8005 61.1986C60.4838 61.1986 60.1839 61.1417 59.9013 61.054L59.8926 61.0513C59.774 61.0133 59.658 60.9679 59.5451 60.9154C58.6834 60.5156 58.0895 59.7282 58.0895 58.8109C58.0895 58.7004 58.1096 58.5953 58.1263 58.4895C57.825 58.3864 57.5331 58.2659 57.2478 58.1306C56.9955 58.0112 56.7493 57.8794 56.51 57.7356C55.7604 58.3618 55.1576 59.145 54.7442 60.0299C54.3308 60.9148 54.1169 61.8797 54.1176 62.8564C54.1176 62.9528 54.1283 63.0466 54.1323 63.1423C55.6688 64.0471 57.3771 64.6213 59.1481 64.8283C59.3007 64.8464 59.4547 64.8584 59.6087 64.8705C59.9556 64.8986 60.3024 64.9234 60.6559 64.9234C61.1065 64.9234 61.5511 64.8999 61.9897 64.8551C62.1531 64.8383 62.3111 64.8042 62.4725 64.7814C64.2503 64.532 65.956 63.9118 67.4788 62.9609C67.4795 62.9254 67.4841 62.8912 67.4841 62.8558C67.4845 61.8926 67.276 60.9408 66.8731 60.066C66.4701 59.1912 65.8823 58.4142 65.15 57.7885Z" fill="#A8CF45"/>
<path d="M63.4808 58.5404C62.6382 58.8122 61.7583 58.9512 60.8729 58.9522C60.212 58.9522 59.5719 58.8691 58.9546 58.7265C58.6744 58.6617 58.3977 58.5826 58.1256 58.4895C58.1089 58.596 58.0888 58.7011 58.0888 58.8109C58.0888 59.7282 58.6827 60.5156 59.5444 60.9153C59.6563 60.9669 59.7714 61.0131 59.8919 61.0513L59.9007 61.0539C60.1832 61.1417 60.4832 61.1986 60.7999 61.1986C61.1166 61.1986 61.4165 61.1417 61.6991 61.0539L61.7078 61.0513C61.8283 61.0131 61.9435 60.9669 62.0553 60.9153C62.917 60.5156 63.5109 59.7282 63.5109 58.8109C63.5123 58.7185 63.4929 58.6301 63.4808 58.5404Z" fill="#C9B77D"/>
<path d="M60.8735 59.0327C65.5847 59.0327 69.4038 55.2136 69.4038 50.5024C69.4038 45.7913 65.5847 41.9722 60.8735 41.9722C56.1624 41.9722 52.3433 45.7913 52.3433 50.5024C52.3433 55.2136 56.1624 59.0327 60.8735 59.0327Z" fill="#FFEEAD"/>
<path d="M57.3382 54.138C57.8803 54.138 58.3198 53.573 58.3198 52.8759C58.3198 52.1788 57.8803 51.6138 57.3382 51.6138C56.7961 51.6138 56.3566 52.1788 56.3566 52.8759C56.3566 53.573 56.7961 54.138 57.3382 54.138Z" fill="#4F4F4F"/>
<path d="M63.7413 54.138C64.2834 54.138 64.7228 53.573 64.7228 52.8759C64.7228 52.1788 64.2834 51.6138 63.7413 51.6138C63.1991 51.6138 62.7597 52.1788 62.7597 52.8759C62.7597 53.573 63.1991 54.138 63.7413 54.138Z" fill="#4F4F4F"/>
<path d="M60.8735 41.9714C56.1625 41.9714 52.3433 45.7906 52.3433 50.5017C52.3433 51.4766 52.5147 52.4093 52.816 53.2824L52.8213 53.2295C52.8474 52.963 52.8742 52.6959 52.9385 52.4367C53.0356 52.0464 53.217 51.6828 53.4079 51.3286C53.8283 50.5593 54.2989 49.8185 54.8166 49.111C56.1792 49.0534 57.5625 49.1137 58.9184 48.9664C60.7189 48.7702 62.4912 48.1522 64.0037 47.1653C64.4378 48.4676 65.2842 49.5932 66.4148 50.3718C66.8678 50.6788 67.3599 50.9238 67.8778 51.1003C68.1878 52.2606 68.3338 53.4618 68.3171 54.663C69.0305 53.3924 69.4048 51.9596 69.4038 50.5024C69.4044 45.7906 65.5853 41.9714 60.8735 41.9714Z" fill="#4F4F4F"/>
<path d="M63.8417 22.6304C63.7119 22.5459 63.6185 22.4157 63.5802 22.2657C63.5419 22.1156 63.5614 21.9566 63.6348 21.8202L64.9217 19.472C64.9756 19.3741 65.0016 19.2632 64.997 19.1515C64.9923 19.0398 64.9572 18.9314 64.8954 18.8382C64.8336 18.7451 64.7475 18.6706 64.6464 18.6228C64.5452 18.5751 64.433 18.556 64.3218 18.5675L55.057 19.5156C54.9581 19.5257 54.8632 19.5597 54.7804 19.6146C54.6976 19.6696 54.6293 19.7438 54.5816 19.831C54.5338 19.9181 54.5079 20.0156 54.5062 20.1149C54.5045 20.2143 54.5269 20.3126 54.5716 20.4014L58.7557 28.7214C58.8059 28.8212 58.8825 28.9054 58.9771 28.9649C59.0717 29.0243 59.1808 29.0568 59.2925 29.0588C59.4042 29.0608 59.5144 29.0322 59.611 28.9762C59.7077 28.9202 59.7872 28.8388 59.841 28.7408L60.84 26.919C61.0416 26.552 61.4989 26.5386 61.8303 26.7951C64.6445 28.9678 66.3191 33.0984 63.6274 38.009L63.616 38.029C63.3114 38.5814 63.9153 39.1948 64.4557 38.8694C65.7937 38.0721 66.8947 36.9321 67.6448 35.5671C70.0258 31.2243 68.3097 25.6434 63.8417 22.6304Z" fill="#007140"/>
<path d="M49.8625 65.8193L40.5522 66.0422C40.4405 66.0449 40.3316 66.0781 40.2373 66.1381C40.143 66.1982 40.067 66.2829 40.0173 66.3831C39.9677 66.4832 39.9464 66.595 39.9557 66.7064C39.965 66.8178 40.0046 66.9246 40.0701 67.0151L41.2901 68.6971C41.5358 69.0359 41.3517 69.4557 40.9787 69.6458C37.811 71.2602 33.3611 71.0071 30.0735 66.4734C30.0688 66.4673 30.0644 66.4611 30.0601 66.4547C29.6912 65.9431 28.8784 66.227 28.9413 66.8544C29.0893 68.405 29.649 69.8879 30.5623 71.1497C33.4689 75.1584 39.2472 75.9947 43.882 73.2448C44.0138 73.1635 44.1714 73.1348 44.3235 73.1643C44.4756 73.1938 44.611 73.2794 44.7029 73.4041L46.275 75.5722C46.3406 75.6627 46.4297 75.7335 46.5327 75.777C46.6357 75.8206 46.7486 75.8351 46.8592 75.8191C46.9699 75.8031 47.0741 75.7572 47.1605 75.6863C47.2469 75.6154 47.3123 75.5222 47.3497 75.4168L50.4558 66.6368C50.4889 66.5431 50.4987 66.4428 50.4845 66.3444C50.4702 66.2461 50.4323 66.1526 50.3739 66.0722C50.3155 65.9918 50.2385 65.9267 50.1494 65.8827C50.0603 65.8386 49.9619 65.8168 49.8625 65.8193Z" fill="#007140"/>
<path d="M23.724 19.3409C22.2992 18.7118 20.7323 18.4742 19.185 18.6526C14.2664 19.2264 10.7097 23.8564 10.8409 29.2444C10.847 29.3992 10.7948 29.5506 10.6946 29.6688C10.5945 29.7869 10.4536 29.8632 10.2999 29.8825L7.64041 30.1925C7.5294 30.2055 7.42405 30.2486 7.33573 30.317C7.24742 30.3855 7.1795 30.4769 7.13931 30.5812C7.09913 30.6854 7.0882 30.7987 7.10772 30.9088C7.12724 31.0188 7.17645 31.1215 7.25005 31.2056L13.388 38.2099C13.4534 38.2847 13.536 38.3425 13.6288 38.3783C13.7215 38.414 13.8216 38.4267 13.9203 38.4152C14.019 38.4036 14.1134 38.3682 14.1955 38.3121C14.2775 38.2559 14.3446 38.1806 14.391 38.0927L18.7518 29.8638C18.8042 29.765 18.8286 29.6538 18.8223 29.5421C18.8161 29.4305 18.7794 29.3227 18.7164 29.2304C18.6533 29.1381 18.5662 29.0648 18.4644 29.0184C18.3627 28.972 18.2502 28.9543 18.1392 28.9672L16.0756 29.2082C15.6598 29.2565 15.3839 28.8909 15.4007 28.4724C15.5426 24.9197 17.9403 21.1628 23.5031 20.5139L23.5258 20.5113C24.1512 20.441 24.3019 19.5933 23.724 19.3409Z" fill="#007140"/>
<path d="M30.8388 10.3303C30.6836 10.3303 30.5348 10.392 30.425 10.5017C30.3153 10.6115 30.2536 10.7603 30.2536 10.9155V13.5175C30.2536 13.5943 30.2688 13.6704 30.2982 13.7414C30.3276 13.8124 30.3707 13.8769 30.425 13.9313C30.4794 13.9856 30.5439 14.0287 30.6149 14.0581C30.6859 14.0875 30.762 14.1027 30.8388 14.1027C30.9157 14.1027 30.9918 14.0875 31.0628 14.0581C31.1338 14.0287 31.1983 13.9856 31.2526 13.9313C31.307 13.8769 31.3501 13.8124 31.3795 13.7414C31.4089 13.6704 31.424 13.5943 31.424 13.5175V10.9155C31.4239 10.7604 31.3621 10.6116 31.2524 10.5019C31.1427 10.3922 30.994 10.3305 30.8388 10.3303ZM48.7069 10.3303C48.5516 10.3303 48.4028 10.392 48.2931 10.5017C48.1833 10.6115 48.1217 10.7603 48.1217 10.9155V13.5175C48.1217 13.6727 48.1833 13.8215 48.2931 13.9313C48.4028 14.041 48.5516 14.1027 48.7069 14.1027C48.8621 14.1027 49.0109 14.041 49.1207 13.9313C49.2304 13.8215 49.292 13.6727 49.292 13.5175V10.9155C49.2919 10.7604 49.2302 10.6116 49.1205 10.5019C49.0107 10.3922 48.862 10.3305 48.7069 10.3303Z" fill="#4F4F4F"/>
<path d="M52.1638 23.4639C52.1631 22.6066 51.8219 21.7848 51.2153 21.1791C50.6087 20.5733 49.7864 20.2334 48.9291 20.2339L31.0631 20.2479C30.2059 20.2487 29.384 20.5898 28.7783 21.1964C28.1726 21.803 27.8326 22.6254 27.8332 23.4826L27.8412 34.1642C27.8419 35.0214 28.1831 35.8433 28.7897 36.449C29.3963 37.0547 30.2186 37.3947 31.0759 37.3942L48.9419 37.3808C49.7991 37.3801 50.621 37.0389 51.2267 36.4323C51.8324 35.8257 52.1724 35.0034 52.1719 34.1461L52.1638 23.4639Z" fill="#A8CF45"/>
<path d="M52.1638 23.4639C52.1631 22.6066 51.8219 21.7848 51.2153 21.1791C50.6087 20.5733 49.7864 20.2334 48.9291 20.2339L31.0631 20.2479C30.2059 20.2487 29.384 20.5898 28.7783 21.1964C28.1726 21.803 27.8326 22.6254 27.8332 23.4826L27.8358 26.568C27.9898 26.6001 28.1492 26.6169 28.3132 26.6169H29.0799C29.3878 26.6169 29.6926 26.5564 29.9771 26.4386C30.2615 26.3208 30.52 26.1482 30.7377 25.9305C30.9553 25.7128 31.128 25.4543 31.2458 25.1699C31.3636 24.8854 31.4241 24.5806 31.424 24.2727C31.424 24.8944 31.671 25.4907 32.1106 25.9303C32.5502 26.3699 33.1465 26.6169 33.7682 26.6169H34.5348C34.8427 26.6169 35.1476 26.5564 35.432 26.4386C35.7165 26.3208 35.9749 26.1482 36.1926 25.9305C36.4103 25.7128 36.583 25.4543 36.7007 25.1699C36.8185 24.8854 36.8791 24.5806 36.879 24.2727C36.879 24.8944 37.126 25.4907 37.5656 25.9303C38.0052 26.3699 38.6014 26.6169 39.2231 26.6169H39.9898C40.2976 26.6169 40.6025 26.5564 40.887 26.4386C41.1714 26.3208 41.4299 26.1482 41.6475 25.9305C41.8652 25.7128 42.0379 25.4543 42.1557 25.1699C42.2734 24.8854 42.334 24.5806 42.3339 24.2727C42.3339 24.8944 42.5809 25.4907 43.0205 25.9303C43.4601 26.3699 44.0564 26.6169 44.6781 26.6169H45.4447C45.7526 26.6169 46.0575 26.5564 46.3419 26.4386C46.6264 26.3208 46.8848 26.1482 47.1025 25.9305C47.3202 25.7128 47.4929 25.4543 47.6106 25.1699C47.7284 24.8854 47.789 24.5806 47.7889 24.2727C47.7889 24.8944 48.0359 25.4907 48.4755 25.9303C48.9151 26.3699 49.5113 26.6169 50.133 26.6169H50.8997C51.3664 26.6169 51.7982 26.4769 52.1638 26.2419V23.4639Z" fill="#FBFFF2"/>
<path d="M27.2834 13.6748C26.557 13.6748 25.9684 14.264 25.9684 14.9898V21.0193H31.424V13.6748H27.2834Z" fill="#009051"/>
<path d="M31.424 13.6748H36.8797V21.0193H31.424V13.6748Z" fill="#FFEEAD"/>
<path d="M36.8796 13.6748H42.3353V21.0193H36.8796V13.6748Z" fill="#009051"/>
<path d="M42.3353 13.6748H47.7909V21.0193H42.3353V13.6748Z" fill="#FFEEAD"/>
<path d="M51.9315 13.6748H47.7909V21.0193H53.2465V14.9898C53.2465 14.6411 53.108 14.3066 52.8614 14.06C52.6147 13.8134 52.2803 13.6748 51.9315 13.6748Z" fill="#009051"/>
<path d="M25.9684 21.02V22.5259C25.9684 23.1476 26.2154 23.7438 26.655 24.1834C27.0946 24.623 27.6909 24.87 28.3126 24.87H29.0792C29.7009 24.87 30.2972 24.623 30.7368 24.1834C31.1764 23.7438 31.4234 23.1476 31.4234 22.5259V21.02H25.9684Z" fill="#007140"/>
<path d="M31.424 21.02V22.5259C31.424 23.1476 31.671 23.7438 32.1106 24.1834C32.5502 24.623 33.1465 24.87 33.7682 24.87H34.5348C35.1565 24.87 35.7528 24.623 36.1924 24.1834C36.632 23.7438 36.879 23.1476 36.879 22.5259V21.02H31.424Z" fill="#C9B77D"/>
<path d="M36.8796 21.02V22.5259C36.8796 23.1476 37.1266 23.7438 37.5662 24.1834C38.0058 24.623 38.6021 24.87 39.2238 24.87H39.9904C40.6121 24.87 41.2084 24.623 41.648 24.1834C42.0876 23.7438 42.3346 23.1476 42.3346 22.5259V21.02H36.8796Z" fill="#007140"/>
<path d="M42.3353 21.02V22.5259C42.3353 23.1476 42.5822 23.7438 43.0218 24.1834C43.4615 24.623 44.0577 24.87 44.6794 24.87H45.4461C45.7539 24.87 46.0587 24.8094 46.3431 24.6916C46.6275 24.5738 46.886 24.4011 47.1036 24.1834C47.3213 23.9658 47.494 23.7073 47.6118 23.4229C47.7296 23.1385 47.7902 22.8337 47.7902 22.5259V21.02H42.3353Z" fill="#C9B77D"/>
<path d="M47.7909 21.02V22.5259C47.7909 23.1476 48.0379 23.7438 48.4775 24.1834C48.9171 24.623 49.5133 24.87 50.135 24.87H50.9017C51.5234 24.87 52.1196 24.623 52.5593 24.1834C52.9989 23.7438 53.2458 23.1476 53.2458 22.5259V21.02H47.7909Z" fill="#007140"/>
<path d="M37.3316 28.0217H34.5375C34.1184 28.0217 33.7165 28.1882 33.4202 28.4846C33.1238 28.7809 32.9573 29.1828 32.9573 29.6019V37.3876H38.9111V29.6012C38.9112 29.3938 38.8704 29.1884 38.7911 28.9967C38.7117 28.805 38.5954 28.6308 38.4487 28.4842C38.302 28.3375 38.1278 28.2211 37.9362 28.1418C37.7445 28.0624 37.5391 28.0216 37.3316 28.0217Z" fill="#FFEEAD"/>
<path d="M36.806 28.8606H35.0631C34.747 28.8606 34.4439 28.9862 34.2204 29.2097C33.9969 29.4332 33.8713 29.7363 33.8713 30.0524V37.3875H37.9972V30.0524C37.9973 29.8959 37.9665 29.741 37.9067 29.5964C37.8469 29.4518 37.7591 29.3204 37.6485 29.2097C37.5379 29.099 37.4066 29.0112 37.262 28.9513C37.1174 28.8914 36.9625 28.8606 36.806 28.8606Z" fill="#007140"/>
<path d="M48.2716 28.3276H43.0644C42.6599 28.3276 42.2719 28.4883 41.9859 28.7744C41.6999 29.0604 41.5392 29.4484 41.5392 29.8529V33.7658C41.5392 34.1704 41.6999 34.5583 41.9859 34.8444C42.2719 35.1304 42.6599 35.2911 43.0644 35.2911H48.2716C48.4719 35.2911 48.6703 35.2517 48.8553 35.175C49.0404 35.0984 49.2085 34.986 49.3502 34.8444C49.4918 34.7027 49.6041 34.5346 49.6808 34.3495C49.7575 34.1645 49.7969 33.9661 49.7969 33.7658V29.8529C49.7969 29.6526 49.7575 29.4543 49.6808 29.2692C49.6041 29.0842 49.4918 28.916 49.3502 28.7744C49.2085 28.6327 49.0404 28.5204 48.8553 28.4437C48.6703 28.3671 48.4719 28.3276 48.2716 28.3276Z" fill="#FFEEAD"/>
<path d="M47.819 29.0588H43.5164C42.8394 29.0588 42.2904 29.6079 42.2904 30.2848V33.334C42.2904 34.0109 42.8394 34.56 43.5164 34.56H47.819C48.4959 34.56 49.045 34.0109 49.045 33.334V30.2848C49.045 29.6079 48.4959 29.0588 47.819 29.0588Z" fill="#007140"/>
<path d="M47.8284 29.0588H43.5077C43.124 29.0588 42.7866 29.2423 42.5636 29.5242L48.6586 34.2232C48.8957 33.9976 49.0457 33.6795 49.0457 33.324V30.2935C49.045 29.6119 48.5006 29.0588 47.8284 29.0588Z" fill="#009051"/>
<path d="M49.1086 3.03687H30.1063C29.5668 3.03687 29.0494 3.25118 28.668 3.63265C28.2865 4.01413 28.0722 4.53152 28.0722 5.071V10.9223C28.0722 11.4618 28.2865 11.9792 28.668 12.3607C29.0494 12.7422 29.5668 12.9565 30.1063 12.9565H49.1086C49.6481 12.9565 50.1655 12.7422 50.5469 12.3607C50.9284 11.9792 51.1427 11.4618 51.1427 10.9223V5.07033C51.1425 4.53096 50.9281 4.01374 50.5467 3.63241C50.1652 3.25108 49.6479 3.03687 49.1086 3.03687Z" fill="#FF6600"/>
<path d="M47.9797 4.31177H31.2352C30.8023 4.31177 30.3871 4.48375 30.0809 4.78989C29.7748 5.09602 29.6028 5.51123 29.6028 5.94417V10.0479C29.6028 10.4809 29.7748 10.8961 30.0809 11.2022C30.3871 11.5083 30.8023 11.6803 31.2352 11.6803H47.9804C48.1947 11.6803 48.407 11.6381 48.6051 11.5561C48.8031 11.474 48.9831 11.3538 49.1346 11.2022C49.2862 11.0506 49.4065 10.8707 49.4885 10.6726C49.5705 10.4746 49.6128 10.2623 49.6128 10.0479V5.94417C49.6126 5.51117 49.4405 5.09596 49.1342 4.78985C48.828 4.48373 48.4127 4.31177 47.9797 4.31177Z" fill="#FFEEAD"/>
<path d="M45.343 28.8145H46.036V34.8138H45.343V28.8145Z" fill="#FFEEAD"/>
<path d="M46.5368 6.40674H33.42C33.1662 6.40674 32.958 6.6143 32.958 6.86874C32.958 7.12317 33.1656 7.33074 33.42 7.33074H46.5368C46.7906 7.33074 46.9988 7.12317 46.9988 6.86874C46.9983 6.74637 46.9494 6.62917 46.8629 6.54264C46.7764 6.45611 46.6592 6.40727 46.5368 6.40674Z" fill="#009051"/>
<path d="M46.5368 8.7168H33.42C33.2976 8.71733 33.1804 8.76617 33.0939 8.8527C33.0074 8.93923 32.9585 9.05643 32.958 9.1788C32.958 9.43323 33.1656 9.6408 33.42 9.6408H46.5368C46.7906 9.6408 46.9988 9.43323 46.9988 9.1788C46.9983 9.05643 46.9494 8.93923 46.8629 8.8527C46.7764 8.76617 46.6592 8.71733 46.5368 8.7168Z" fill="#009051"/>
<path d="M37.0959 33.4933C37.3633 33.4933 37.58 33.2766 37.58 33.0092C37.58 32.7419 37.3633 32.5251 37.0959 32.5251C36.8286 32.5251 36.6118 32.7419 36.6118 33.0092C36.6118 33.2766 36.8286 33.4933 37.0959 33.4933Z" fill="#FFEEAD"/>
</g>
<defs>
<clipPath id="clip0_1_662">
<rect width="77" height="77" fill="white" transform="translate(0 0.931152)"/>
</clipPath>
</defs>
</svg>
