<svg width="20" height="20" viewBox="0 0 20 20" fill="none" xmlns="http://www.w3.org/2000/svg">
<path d="M9.99999 6.55548C8.27968 6.55548 6.87577 7.95939 6.87577 9.6797C6.87577 11.4 8.27968 12.8039 9.99999 12.8039C11.7203 12.8039 13.1242 11.4 13.1242 9.6797C13.1242 7.95939 11.7203 6.55548 9.99999 6.55548ZM19.3703 9.6797C19.3703 8.38595 19.382 7.10392 19.3094 5.81251C19.2367 4.31251 18.8945 2.98126 17.7976 1.88439C16.6984 0.78517 15.3695 0.445326 13.8695 0.37267C12.5758 0.300014 11.2937 0.311732 10.0023 0.311732C8.70858 0.311732 7.42655 0.300014 6.13515 0.37267C4.63515 0.445326 3.3039 0.787513 2.20702 1.88439C1.1078 2.98361 0.767958 4.31251 0.695302 5.81251C0.622645 7.10626 0.634364 8.38829 0.634364 9.6797C0.634364 10.9711 0.622645 12.2555 0.695302 13.5469C0.767958 15.0469 1.11015 16.3781 2.20702 17.475C3.30624 18.5742 4.63515 18.9141 6.13515 18.9867C7.4289 19.0594 8.71093 19.0477 10.0023 19.0477C11.2961 19.0477 12.5781 19.0594 13.8695 18.9867C15.3695 18.9141 16.7008 18.5719 17.7976 17.475C18.8969 16.3758 19.2367 15.0469 19.3094 13.5469C19.3844 12.2555 19.3703 10.9735 19.3703 9.6797ZM9.99999 14.4867C7.33983 14.4867 5.19296 12.3399 5.19296 9.6797C5.19296 7.01954 7.33983 4.87267 9.99999 4.87267C12.6601 4.87267 14.807 7.01954 14.807 9.6797C14.807 12.3399 12.6601 14.4867 9.99999 14.4867ZM15.0039 5.79845C14.3828 5.79845 13.8812 5.29689 13.8812 4.67579C13.8812 4.0547 14.3828 3.55314 15.0039 3.55314C15.625 3.55314 16.1266 4.0547 16.1266 4.67579C16.1267 4.82328 16.0978 4.96935 16.0415 5.10564C15.9851 5.24193 15.9024 5.36576 15.7981 5.47005C15.6939 5.57433 15.57 5.65702 15.4337 5.71337C15.2974 5.76972 15.1514 5.79864 15.0039 5.79845Z" fill="white"/>
</svg>
