<svg width="1768" height="507" viewBox="0 0 1768 507" fill="none" xmlns="http://www.w3.org/2000/svg">
<mask id="path-1-outside-1_450_570" maskUnits="userSpaceOnUse" x="1451.48" y="164.741" width="316" height="255" fill="black">
<rect fill="white" x="1451.48" y="164.741" width="316" height="255"/>
<path d="M1712.37 220.307L1646.73 292.524L1711.75 364.741H1647.15L1609.49 323.797L1571.64 364.741H1507.03L1572.67 292.524L1507.65 220.307H1572.25L1609.7 261.456L1647.76 220.307H1712.37Z"/>
</mask>
<path d="M1712.37 220.307L1646.73 292.524L1711.75 364.741H1647.15L1609.49 323.797L1571.64 364.741H1507.03L1572.67 292.524L1507.65 220.307H1572.25L1609.7 261.456L1647.76 220.307H1712.37Z" fill="url(#paint0_linear_450_570)"/>
<path d="M1712.37 220.307L1752.97 257.208C1767.57 241.138 1771.33 217.966 1762.54 198.108C1753.75 178.249 1734.08 165.442 1712.37 165.442V220.307ZM1646.73 292.524L1606.13 255.623C1587.18 276.475 1587.11 308.293 1605.96 329.234L1646.73 292.524ZM1711.75 364.741V419.606C1733.42 419.606 1753.06 406.853 1761.87 387.058C1770.69 367.263 1767.02 344.135 1752.53 328.031L1711.75 364.741ZM1647.15 364.741L1606.76 401.879C1617.15 413.177 1631.8 419.606 1647.15 419.606V364.741ZM1609.49 323.797L1649.88 286.659C1639.51 275.38 1624.89 268.953 1609.57 268.932C1594.25 268.911 1579.61 275.299 1569.21 286.55L1609.49 323.797ZM1571.64 364.741V419.606C1586.93 419.606 1601.54 413.22 1611.92 401.989L1571.64 364.741ZM1507.03 364.741L1466.43 327.84C1451.83 343.91 1448.07 367.082 1456.86 386.94C1465.65 406.799 1485.32 419.606 1507.03 419.606V364.741ZM1572.67 292.524L1613.27 329.425C1632.22 308.573 1632.29 276.755 1613.44 255.815L1572.67 292.524ZM1507.65 220.307V165.442C1485.98 165.442 1466.34 178.195 1457.53 197.99C1448.71 217.785 1452.38 240.913 1466.87 257.017L1507.65 220.307ZM1572.25 220.307L1612.83 183.381C1602.44 171.955 1587.7 165.442 1572.25 165.442V220.307ZM1609.7 261.456L1569.12 298.383C1579.47 309.752 1594.11 316.259 1609.48 316.322C1624.85 316.384 1639.54 309.996 1649.98 298.712L1609.7 261.456ZM1647.76 220.307V165.442C1632.47 165.442 1617.87 171.825 1607.49 183.051L1647.76 220.307ZM1671.77 183.406L1606.13 255.623L1687.34 329.425L1752.97 257.208L1671.77 183.406ZM1605.96 329.234L1670.97 401.45L1752.53 328.031L1687.51 255.815L1605.96 329.234ZM1711.75 309.875H1647.15V419.606H1711.75V309.875ZM1687.53 327.603L1649.88 286.659L1569.11 360.936L1606.76 401.879L1687.53 327.603ZM1569.21 286.55L1531.35 327.493L1611.92 401.989L1649.78 361.045L1569.21 286.55ZM1571.64 309.875H1507.03V419.606H1571.64V309.875ZM1547.64 401.642L1613.27 329.425L1532.06 255.623L1466.43 327.84L1547.64 401.642ZM1613.44 255.815L1548.43 183.598L1466.87 257.017L1531.89 329.234L1613.44 255.815ZM1507.65 275.173H1572.25V165.442H1507.65V275.173ZM1531.68 257.234L1569.12 298.383L1650.28 224.53L1612.83 183.381L1531.68 257.234ZM1649.98 298.712L1688.04 257.563L1607.49 183.051L1569.42 224.2L1649.98 298.712ZM1647.76 275.173H1712.37V165.442H1647.76V275.173Z" fill="#3C3C3C" mask="url(#path-1-outside-1_450_570)"/>
<path fill-rule="evenodd" clip-rule="evenodd" d="M140.65 39.5801C187.928 62.4051 210.394 98.982 219.719 136.684C241.884 124.713 263.242 117.858 278.692 114.032C282.295 100.301 289.414 87.7777 299.039 77.7441C313.537 62.6278 333.687 53.0393 356.281 53.0393H541.338C570.458 53.0393 594.066 76.6476 594.066 105.771V116.023C606.944 113.587 620.77 112.367 635.544 112.367H643.01C653.538 112.367 663.345 115.455 671.581 120.772C689.991 113.055 711.345 109.222 735.645 109.222C751.755 109.222 766.653 110.549 780.343 113.216C786.596 105.508 793.423 98.2153 800.785 91.4383C819.55 74.1619 841.946 60.2699 867.277 51.1761L997.558 4.39655C999.747 3.44843 1002.02 2.62814 1004.38 1.96858C1032.37 -5.88022 1061.42 10.4439 1069.27 38.4259L1090.51 113.158C1100.51 111.093 1111.09 109.885 1122.25 109.535C1124.13 109.333 1126.04 109.226 1127.97 109.226C1146.28 109.226 1162.99 111.493 1178.1 116.015V105.771C1178.1 76.6476 1201.7 53.0393 1230.82 53.0393H1257.94C1279.42 53.0393 1298.96 62.1001 1313.1 76.4579C1322.78 86.2854 1329.94 98.6729 1333.43 112.367H1353.32V112.4C1371.23 112.392 1388.02 121.593 1397.67 136.639C1400.72 133.312 1404.1 130.266 1407.79 127.508C1421.25 117.47 1437.16 112.367 1455.48 112.367H1492.02V112.52C1497.54 112.52 1503.17 113.398 1508.7 115.249C1536.23 124.462 1551.08 154.249 1541.86 181.778L1460.67 422.238C1460.29 423.639 1459.85 425.037 1459.33 426.426C1449.46 453.27 1438.29 472.253 1417.69 486.945C1397.74 501.184 1374.58 507 1341.54 507C1334.56 507 1328.43 506.843 1322.61 506.452C1317.08 506.081 1311.98 505.273 1307.25 503.987C1284.05 498.45 1266.8 477.592 1266.8 452.701V425.672H1230.82C1218.73 425.672 1207.6 421.603 1198.7 414.76C1178.4 425.049 1154.68 430.388 1127.18 430.388V430.202L1125.74 430.181C1098.59 429.332 1074.8 423.569 1054.4 412.913L1051.46 411.334C1050.39 412.254 1049.31 413.161 1048.22 414.059C1031.26 427.98 1011.82 439.238 990.344 446.947L860.063 493.726C857.875 494.678 855.599 495.495 853.237 496.158C825.251 504.007 796.201 487.683 788.353 459.701L777.763 422.448C765.507 425.874 752.411 428.096 738.568 429.204L736.614 429.398C731.23 429.823 726.3 430.033 721.836 430.033C689.336 430.033 660.653 421.088 638.418 403.828C635.182 401.317 632.11 398.663 629.204 395.872C620.675 413.507 602.611 425.676 581.707 425.676H528.666C516.102 425.676 504.567 421.281 495.511 413.944C486.45 421.281 474.916 425.676 462.355 425.676H407.744C378.62 425.676 355.012 402.068 355.012 372.948V262.026C319.709 353.701 217.328 412.192 201.585 420.754C199.379 422.044 197.067 423.178 194.656 424.146C185.405 428.475 174.798 430.165 163.957 428.401C-42.3626 394.289 4.5406 213.214 4.66839 212.695L4.69305 212.699C8.71638 196.263 20.4237 182.981 35.6513 176.67C27.2213 107.07 78.626 51.7821 78.8568 51.5306L78.8733 51.5471C94.1381 34.7612 119.173 29.2168 140.646 39.5843L140.65 39.5801Z" fill="#3C3C3C"/>
<path fill-rule="evenodd" clip-rule="evenodd" d="M161.983 259.857C161.983 259.857 209.29 130.41 119.289 86.9529C119.289 86.9529 33.5089 179.061 161.983 259.857Z" fill="#A8CF45"/>
<path fill-rule="evenodd" clip-rule="evenodd" d="M309.776 161.855C309.776 161.855 138.459 179.354 176.503 375.306C176.503 375.306 349.564 285.774 309.776 161.855Z" fill="#009051"/>
<path fill-rule="evenodd" clip-rule="evenodd" d="M57.258 225.255C57.258 225.255 24.4323 351.776 173.91 376.489C173.91 376.489 155.941 229.699 57.258 225.255Z" fill="#FF6600"/>
<path fill-rule="evenodd" clip-rule="evenodd" d="M1020.09 52.6402L886.484 100.611C814.62 126.412 772.944 207.753 793.869 281.364L840.52 445.484L974.127 397.509C1045.99 371.708 1087.66 290.367 1066.74 216.756L1020.09 52.6361V52.6402Z" fill="#009051"/>
<path d="M330.273 134.452V153.311H409.248V372.941H463.859V153.311H542.834V105.769H357.777C342.455 105.769 330.273 119.129 330.273 134.452ZM530.17 372.941H583.211V264.892C583.211 234.639 597.747 219.317 626.825 219.317H644.505V165.096H637.04C567.497 165.096 531.745 198.495 530.17 265.68V372.941ZM727.318 334.435C710.816 334.435 702.172 326.578 700.993 310.077C700.993 294.754 711.604 284.931 732.425 281.002C747.748 277.861 761.891 273.537 774.072 268.429V287.68C774.072 317.146 756.392 334.435 727.318 334.435ZM739.499 204.777C761.108 204.777 772.11 210.672 773.289 222.458C773.289 233.852 761.895 240.53 739.499 243.283C686.849 248.391 650.701 261.751 649.526 311.647C649.526 357.615 684.1 380.798 734 376.87C790.186 372.941 824.76 347.404 824.76 290.038V219.317C823.581 180.811 794.507 161.955 737.145 161.955C689.212 161.955 662.099 180.815 655.813 219.317H708.067C710.816 209.493 721.031 204.782 739.499 204.782V204.777ZM931.147 208.706C959.434 208.706 973.974 228.349 975.153 268.425C975.153 310.464 960.222 331.681 930.36 331.681C900.498 331.681 886.355 310.464 886.746 268.425C888.317 228.349 902.856 208.706 931.143 208.706H931.147ZM1001.08 105.765H975.148V194.167C961.788 172.558 941.75 161.951 915.821 161.951C860.422 163.913 832.918 200.061 832.918 270.783C832.918 339.934 865.133 374.899 929.568 376.082C994.395 376.474 1027.01 345.437 1027.01 282.965V132.089C1027.01 117.946 1015.22 105.765 1001.07 105.765H1001.08ZM1219.45 309.289H1180.94C1173.87 309.289 1167.98 311.647 1163.26 316.755C1153.04 326.578 1141.65 331.686 1129.47 331.686C1103.93 331.686 1090.18 315.58 1088.21 283.752H1222.59C1226.52 202.419 1195.48 161.955 1129.47 161.955C1066.21 162.347 1034.39 197.708 1034.39 268.434C1034.39 339.155 1065.82 375.695 1128.69 377.657C1179.77 377.657 1208.05 353.298 1219.45 309.293V309.289ZM1128.69 204.777C1151.08 204.777 1164.05 218.921 1167.19 246.425H1089.01C1092.93 218.921 1106.29 204.777 1128.69 204.777ZM1259.43 105.765H1232.32V372.937H1284.57V131.302C1284.57 117.55 1273.18 105.765 1259.43 105.765H1259.43ZM1321.03 409.873V452.699C1322.6 453.878 1329.67 454.27 1343.03 454.27C1386.25 454.27 1398.82 442.484 1411.39 408.298L1493.51 165.092H1456.97C1443.61 165.092 1435.36 171.379 1432.21 183.56L1396.07 309.289L1354.81 165.092H1295.48L1366.2 368.221C1374.46 395.725 1364.24 409.869 1335.56 409.869H1321.02L1321.03 409.873Z" fill="white"/>
<mask id="mask0_450_570" style="mask-type:luminance" maskUnits="userSpaceOnUse" x="330" y="105" width="1164" height="350">
<path d="M330.264 134.452V153.311H409.238V372.941H463.85V153.311H542.824V105.769H357.768C342.445 105.769 330.264 119.129 330.264 134.452ZM530.161 372.941H583.202V264.892C583.202 234.639 597.737 219.317 626.816 219.317H644.496V165.096H637.03C567.488 165.096 531.735 198.495 530.161 265.68V372.941ZM727.308 334.435C710.807 334.435 702.162 326.578 700.983 310.077C700.983 294.754 711.594 284.931 732.416 281.002C747.738 277.861 761.882 273.537 774.063 268.429V287.68C774.063 317.146 756.382 334.435 727.308 334.435ZM739.49 204.777C761.098 204.777 772.101 210.672 773.28 222.458C773.28 233.852 761.886 240.53 739.49 243.283C686.84 248.391 650.692 261.751 649.517 311.647C649.517 357.615 684.09 380.798 733.99 376.87C790.177 372.941 824.75 347.404 824.75 290.038V219.317C823.571 180.811 794.497 161.955 737.136 161.955C689.202 161.955 662.09 180.815 655.803 219.317H708.057C710.807 209.493 721.022 204.777 739.49 204.777ZM931.138 208.706C959.425 208.706 973.964 228.349 975.143 268.425C975.143 310.464 960.212 331.681 930.351 331.681C900.489 331.681 886.345 310.464 886.737 268.425C888.307 228.349 902.851 208.706 931.138 208.706ZM1001.07 105.765H975.139V194.167C961.779 172.558 941.74 161.951 915.811 161.951C860.412 163.913 832.908 200.061 832.908 270.783C832.908 339.934 865.124 374.899 929.559 376.082C994.386 376.474 1027 345.437 1027 282.965V132.089C1027 117.946 1015.21 105.765 1001.06 105.765H1001.07ZM1219.44 309.289H1180.93C1173.86 309.289 1167.97 311.647 1163.25 316.755C1153.04 326.578 1141.64 331.686 1129.46 331.686C1103.92 331.686 1090.17 315.58 1088.2 283.752H1222.58C1226.51 202.419 1195.47 161.955 1129.46 161.955C1066.2 162.347 1034.38 197.708 1034.38 268.434C1034.38 339.155 1065.81 375.695 1128.68 377.657C1179.76 377.657 1208.04 353.294 1219.44 309.289ZM1128.68 204.777C1151.07 204.777 1164.04 218.921 1167.18 246.425H1089C1092.92 218.921 1106.28 204.777 1128.68 204.777ZM1259.42 105.765H1232.31V372.937H1284.56V131.302C1284.56 117.55 1273.17 105.765 1259.42 105.765ZM1321.02 409.873V452.699C1322.59 453.878 1329.66 454.27 1343.02 454.27C1386.24 454.27 1398.81 442.484 1411.38 408.298L1493.5 165.092H1456.96C1443.6 165.092 1435.35 171.379 1432.2 183.56L1396.06 309.289L1354.8 165.092H1295.47L1366.19 368.221C1374.45 395.725 1364.23 409.869 1335.55 409.869H1321.01L1321.02 409.873Z" fill="white"/>
</mask>
<g mask="url(#mask0_450_570)">
<path fill-rule="evenodd" clip-rule="evenodd" d="M-102.746 865.251C148.267 411.212 929.729 -0.202148 1672 407.358C2214.88 705.439 -94.4603 1096.51 -102.746 865.251Z" fill="#E6E6E6"/>
</g>
<path d="M1718.32 221.299L1652.68 293.516L1717.7 365.733H1653.09L1615.44 324.79L1577.59 365.733H1512.98L1578.61 293.516L1513.6 221.299H1578.2L1615.65 262.449L1653.71 221.299H1718.32Z" fill="url(#paint1_linear_450_570)"/>
<defs>
<linearGradient id="paint0_linear_450_570" x1="1611.21" y1="298.233" x2="1611.21" y2="298.233" gradientUnits="userSpaceOnUse">
<stop stop-color="#D3D3D3"/>
<stop offset="1" stop-color="white"/>
</linearGradient>
<linearGradient id="paint1_linear_450_570" x1="1480.49" y1="213.739" x2="1575.06" y2="503.227" gradientUnits="userSpaceOnUse">
<stop stop-color="#DBF301"/>
<stop offset="0.528216" stop-color="#00A651"/>
<stop offset="0.716981" stop-color="#00A651"/>
<stop offset="1" stop-color="#009051"/>
</linearGradient>
</defs>
</svg>
